<mxfile host="app.diagrams.net" modified="2021-07-29T05:21:26.953Z" agent="5.0 (Windows NT 10.0; Win64; x64) AppleWebKit/537.36 (KHTML, like Gecko) Chrome/91.0.4472.164 Safari/537.36 OPR/77.0.4054.277" etag="vXbm8JRCpsx45SxRxBIS" version="14.9.2" type="github">
  <diagram id="1pgFqk30Ii29UOg_QAwz" name="Page-1">
    <mxGraphModel dx="1382" dy="764" grid="1" gridSize="10" guides="1" tooltips="1" connect="1" arrows="1" fold="1" page="1" pageScale="1" pageWidth="850" pageHeight="1100" math="0" shadow="0">
      <root>
        <mxCell id="0" />
        <mxCell id="1" parent="0" />
        <mxCell id="emAAfmEKNeKGw9AN2HSt-58" value="" style="rounded=0;whiteSpace=wrap;html=1;dashed=1;verticalAlign=top;" vertex="1" parent="1">
          <mxGeometry x="160" y="190" width="120" height="400" as="geometry" />
        </mxCell>
        <mxCell id="emAAfmEKNeKGw9AN2HSt-56" value="" style="rounded=0;whiteSpace=wrap;html=1;dashed=1;verticalAlign=top;" vertex="1" parent="1">
          <mxGeometry x="480" y="210" width="530" height="270" as="geometry" />
        </mxCell>
        <mxCell id="emAAfmEKNeKGw9AN2HSt-20" style="edgeStyle=orthogonalEdgeStyle;rounded=0;orthogonalLoop=1;jettySize=auto;html=1;exitX=1;exitY=0.5;exitDx=0;exitDy=0;entryX=0.5;entryY=1;entryDx=0;entryDy=0;entryPerimeter=0;" edge="1" parent="1" source="emAAfmEKNeKGw9AN2HSt-1" target="emAAfmEKNeKGw9AN2HSt-2">
          <mxGeometry relative="1" as="geometry" />
        </mxCell>
        <mxCell id="emAAfmEKNeKGw9AN2HSt-1" value="Transport Services" style="rounded=0;whiteSpace=wrap;html=1;verticalAlign=top;" vertex="1" parent="1">
          <mxGeometry x="495" y="290" width="140" height="140" as="geometry" />
        </mxCell>
        <mxCell id="emAAfmEKNeKGw9AN2HSt-35" value="" style="edgeStyle=orthogonalEdgeStyle;rounded=0;orthogonalLoop=1;jettySize=auto;html=1;entryX=0.5;entryY=1;entryDx=0;entryDy=0;entryPerimeter=0;" edge="1" parent="1" source="emAAfmEKNeKGw9AN2HSt-2" target="emAAfmEKNeKGw9AN2HSt-5">
          <mxGeometry relative="1" as="geometry">
            <mxPoint x="932.5" y="360" as="targetPoint" />
          </mxGeometry>
        </mxCell>
        <mxCell id="emAAfmEKNeKGw9AN2HSt-2" value="Message Queue&amp;nbsp;" style="shape=cylinder3;whiteSpace=wrap;html=1;boundedLbl=1;backgroundOutline=1;size=15;rotation=90;verticalAlign=middle;horizontal=0;" vertex="1" parent="1">
          <mxGeometry x="755" y="277.5" width="40" height="165" as="geometry" />
        </mxCell>
        <mxCell id="emAAfmEKNeKGw9AN2HSt-21" value="REST API" style="edgeStyle=orthogonalEdgeStyle;rounded=0;orthogonalLoop=1;jettySize=auto;html=1;exitX=0.5;exitY=0;exitDx=0;exitDy=0;entryX=0.5;entryY=1;entryDx=0;entryDy=0;" edge="1" parent="1" source="emAAfmEKNeKGw9AN2HSt-4" target="emAAfmEKNeKGw9AN2HSt-8">
          <mxGeometry relative="1" as="geometry" />
        </mxCell>
        <mxCell id="emAAfmEKNeKGw9AN2HSt-32" style="edgeStyle=orthogonalEdgeStyle;rounded=0;orthogonalLoop=1;jettySize=auto;html=1;exitX=0.5;exitY=1;exitDx=0;exitDy=0;entryX=0;entryY=0.5;entryDx=0;entryDy=0;entryPerimeter=0;" edge="1" parent="1" source="emAAfmEKNeKGw9AN2HSt-4" target="emAAfmEKNeKGw9AN2HSt-2">
          <mxGeometry relative="1" as="geometry" />
        </mxCell>
        <mxCell id="emAAfmEKNeKGw9AN2HSt-33" value="" style="edgeStyle=orthogonalEdgeStyle;rounded=0;orthogonalLoop=1;jettySize=auto;html=1;" edge="1" parent="1" source="emAAfmEKNeKGw9AN2HSt-4" target="emAAfmEKNeKGw9AN2HSt-5">
          <mxGeometry relative="1" as="geometry" />
        </mxCell>
        <mxCell id="emAAfmEKNeKGw9AN2HSt-42" value="REST API" style="edgeStyle=orthogonalEdgeStyle;rounded=0;orthogonalLoop=1;jettySize=auto;html=1;exitX=0.5;exitY=0;exitDx=0;exitDy=0;entryX=0.558;entryY=1.075;entryDx=0;entryDy=0;entryPerimeter=0;" edge="1" parent="1" source="emAAfmEKNeKGw9AN2HSt-4" target="emAAfmEKNeKGw9AN2HSt-37">
          <mxGeometry relative="1" as="geometry" />
        </mxCell>
        <mxCell id="emAAfmEKNeKGw9AN2HSt-64" value="REST API" style="edgeStyle=orthogonalEdgeStyle;rounded=0;orthogonalLoop=1;jettySize=auto;html=1;exitX=0.5;exitY=0;exitDx=0;exitDy=0;entryX=0.5;entryY=1;entryDx=0;entryDy=0;" edge="1" parent="1" source="emAAfmEKNeKGw9AN2HSt-4" target="emAAfmEKNeKGw9AN2HSt-63">
          <mxGeometry x="0.3333" relative="1" as="geometry">
            <mxPoint as="offset" />
          </mxGeometry>
        </mxCell>
        <mxCell id="emAAfmEKNeKGw9AN2HSt-4" value="Core Services" style="rounded=0;whiteSpace=wrap;html=1;" vertex="1" parent="1">
          <mxGeometry x="715" y="230" width="120" height="60" as="geometry" />
        </mxCell>
        <mxCell id="emAAfmEKNeKGw9AN2HSt-5" value="Data Storage" style="shape=cylinder3;whiteSpace=wrap;html=1;boundedLbl=1;backgroundOutline=1;size=15;verticalAlign=middle;" vertex="1" parent="1">
          <mxGeometry x="895" y="220" width="60" height="80" as="geometry" />
        </mxCell>
        <mxCell id="emAAfmEKNeKGw9AN2HSt-8" value="Web App&lt;br&gt;- Real time dashboards&lt;br&gt;&lt;div style=&quot;text-align: left&quot;&gt;- Monitoring&lt;/div&gt;&lt;div style=&quot;text-align: left&quot;&gt;- Alarms&lt;/div&gt;&lt;div style=&quot;text-align: left&quot;&gt;- Devices management&lt;/div&gt;&lt;div style=&quot;text-align: left&quot;&gt;- User management&lt;/div&gt;" style="rounded=0;whiteSpace=wrap;html=1;verticalAlign=middle;" vertex="1" parent="1">
          <mxGeometry x="520" y="30" width="165" height="100" as="geometry" />
        </mxCell>
        <mxCell id="emAAfmEKNeKGw9AN2HSt-15" style="edgeStyle=orthogonalEdgeStyle;rounded=0;orthogonalLoop=1;jettySize=auto;html=1;exitX=1;exitY=0.5;exitDx=0;exitDy=0;" edge="1" parent="1" source="emAAfmEKNeKGw9AN2HSt-10" target="emAAfmEKNeKGw9AN2HSt-1">
          <mxGeometry relative="1" as="geometry" />
        </mxCell>
        <mxCell id="emAAfmEKNeKGw9AN2HSt-10" value="The Things Network (LoRaWAN)" style="rounded=0;whiteSpace=wrap;html=1;verticalAlign=middle;" vertex="1" parent="1">
          <mxGeometry x="330" y="200" width="120" height="40" as="geometry" />
        </mxCell>
        <mxCell id="emAAfmEKNeKGw9AN2HSt-19" style="edgeStyle=orthogonalEdgeStyle;rounded=0;orthogonalLoop=1;jettySize=auto;html=1;exitX=1;exitY=0.5;exitDx=0;exitDy=0;" edge="1" parent="1" source="emAAfmEKNeKGw9AN2HSt-11" target="emAAfmEKNeKGw9AN2HSt-1">
          <mxGeometry relative="1" as="geometry" />
        </mxCell>
        <mxCell id="emAAfmEKNeKGw9AN2HSt-11" value="Edge Gateway" style="rounded=0;whiteSpace=wrap;html=1;verticalAlign=middle;" vertex="1" parent="1">
          <mxGeometry x="345" y="385" width="90" height="30" as="geometry" />
        </mxCell>
        <mxCell id="emAAfmEKNeKGw9AN2HSt-14" style="edgeStyle=orthogonalEdgeStyle;rounded=0;orthogonalLoop=1;jettySize=auto;html=1;" edge="1" parent="1" source="emAAfmEKNeKGw9AN2HSt-12">
          <mxGeometry relative="1" as="geometry">
            <mxPoint x="330" y="225" as="targetPoint" />
          </mxGeometry>
        </mxCell>
        <mxCell id="emAAfmEKNeKGw9AN2HSt-12" value="Data Logger" style="rounded=0;whiteSpace=wrap;html=1;verticalAlign=middle;" vertex="1" parent="1">
          <mxGeometry x="180" y="210" width="90" height="30" as="geometry" />
        </mxCell>
        <mxCell id="emAAfmEKNeKGw9AN2HSt-17" style="edgeStyle=orthogonalEdgeStyle;rounded=0;orthogonalLoop=1;jettySize=auto;html=1;exitX=1;exitY=0.5;exitDx=0;exitDy=0;" edge="1" parent="1" source="emAAfmEKNeKGw9AN2HSt-16" target="emAAfmEKNeKGw9AN2HSt-11">
          <mxGeometry relative="1" as="geometry" />
        </mxCell>
        <mxCell id="emAAfmEKNeKGw9AN2HSt-52" value="Motbus" style="edgeLabel;html=1;align=center;verticalAlign=middle;resizable=0;points=[];" vertex="1" connectable="0" parent="emAAfmEKNeKGw9AN2HSt-17">
          <mxGeometry x="-0.278" y="1" relative="1" as="geometry">
            <mxPoint y="1" as="offset" />
          </mxGeometry>
        </mxCell>
        <mxCell id="emAAfmEKNeKGw9AN2HSt-16" value="Device" style="rounded=0;whiteSpace=wrap;html=1;verticalAlign=middle;" vertex="1" parent="1">
          <mxGeometry x="180" y="360" width="85" height="35" as="geometry" />
        </mxCell>
        <mxCell id="emAAfmEKNeKGw9AN2HSt-27" value="HTTP" style="rounded=0;whiteSpace=wrap;html=1;verticalAlign=middle;" vertex="1" parent="1">
          <mxGeometry x="505" y="390" width="120" height="30" as="geometry" />
        </mxCell>
        <mxCell id="emAAfmEKNeKGw9AN2HSt-29" value="CoAP" style="rounded=0;whiteSpace=wrap;html=1;verticalAlign=middle;" vertex="1" parent="1">
          <mxGeometry x="505" y="350" width="120" height="30" as="geometry" />
        </mxCell>
        <mxCell id="emAAfmEKNeKGw9AN2HSt-30" value="MQTT" style="rounded=0;whiteSpace=wrap;html=1;verticalAlign=middle;" vertex="1" parent="1">
          <mxGeometry x="505" y="310" width="120" height="30" as="geometry" />
        </mxCell>
        <mxCell id="emAAfmEKNeKGw9AN2HSt-37" value="External Services" style="rounded=0;whiteSpace=wrap;html=1;verticalAlign=middle;" vertex="1" parent="1">
          <mxGeometry x="887.5" y="50" width="120" height="60" as="geometry" />
        </mxCell>
        <mxCell id="emAAfmEKNeKGw9AN2HSt-39" value="MQTT\HYYP\CoAP" style="edgeStyle=orthogonalEdgeStyle;rounded=0;orthogonalLoop=1;jettySize=auto;html=1;entryX=0.5;entryY=1;entryDx=0;entryDy=0;" edge="1" parent="1" source="emAAfmEKNeKGw9AN2HSt-38" target="emAAfmEKNeKGw9AN2HSt-1">
          <mxGeometry relative="1" as="geometry" />
        </mxCell>
        <mxCell id="emAAfmEKNeKGw9AN2HSt-38" value="External Services" style="rounded=0;whiteSpace=wrap;html=1;verticalAlign=middle;" vertex="1" parent="1">
          <mxGeometry x="505" y="500" width="120" height="60" as="geometry" />
        </mxCell>
        <mxCell id="emAAfmEKNeKGw9AN2HSt-41" style="edgeStyle=orthogonalEdgeStyle;rounded=0;orthogonalLoop=1;jettySize=auto;html=1;entryX=1;entryY=0.561;entryDx=0;entryDy=0;entryPerimeter=0;" edge="1" parent="1" source="emAAfmEKNeKGw9AN2HSt-40" target="emAAfmEKNeKGw9AN2HSt-2">
          <mxGeometry relative="1" as="geometry" />
        </mxCell>
        <mxCell id="emAAfmEKNeKGw9AN2HSt-43" value="HTTP" style="edgeLabel;html=1;align=center;verticalAlign=middle;resizable=0;points=[];" vertex="1" connectable="0" parent="emAAfmEKNeKGw9AN2HSt-41">
          <mxGeometry x="-0.1674" y="1" relative="1" as="geometry">
            <mxPoint as="offset" />
          </mxGeometry>
        </mxCell>
        <mxCell id="emAAfmEKNeKGw9AN2HSt-40" value="External Services" style="rounded=0;whiteSpace=wrap;html=1;verticalAlign=middle;" vertex="1" parent="1">
          <mxGeometry x="705" y="500" width="120" height="60" as="geometry" />
        </mxCell>
        <mxCell id="emAAfmEKNeKGw9AN2HSt-47" style="edgeStyle=orthogonalEdgeStyle;rounded=0;orthogonalLoop=1;jettySize=auto;html=1;exitX=1;exitY=0.5;exitDx=0;exitDy=0;entryX=0;entryY=0.25;entryDx=0;entryDy=0;" edge="1" parent="1" source="emAAfmEKNeKGw9AN2HSt-45" target="emAAfmEKNeKGw9AN2HSt-1">
          <mxGeometry relative="1" as="geometry" />
        </mxCell>
        <mxCell id="emAAfmEKNeKGw9AN2HSt-51" value="MQTT" style="edgeLabel;html=1;align=center;verticalAlign=middle;resizable=0;points=[];" vertex="1" connectable="0" parent="emAAfmEKNeKGw9AN2HSt-47">
          <mxGeometry x="-0.6525" y="1" relative="1" as="geometry">
            <mxPoint y="1" as="offset" />
          </mxGeometry>
        </mxCell>
        <mxCell id="emAAfmEKNeKGw9AN2HSt-45" value="Device" style="rounded=0;whiteSpace=wrap;html=1;verticalAlign=middle;" vertex="1" parent="1">
          <mxGeometry x="180" y="290" width="90" height="25" as="geometry" />
        </mxCell>
        <mxCell id="emAAfmEKNeKGw9AN2HSt-53" style="edgeStyle=orthogonalEdgeStyle;rounded=0;orthogonalLoop=1;jettySize=auto;html=1;entryX=0;entryY=0.75;entryDx=0;entryDy=0;" edge="1" parent="1" source="emAAfmEKNeKGw9AN2HSt-49" target="emAAfmEKNeKGw9AN2HSt-11">
          <mxGeometry relative="1" as="geometry" />
        </mxCell>
        <mxCell id="emAAfmEKNeKGw9AN2HSt-54" value="OPC-UA" style="edgeLabel;html=1;align=center;verticalAlign=middle;resizable=0;points=[];" vertex="1" connectable="0" parent="emAAfmEKNeKGw9AN2HSt-53">
          <mxGeometry x="-0.3455" y="4" relative="1" as="geometry">
            <mxPoint y="1" as="offset" />
          </mxGeometry>
        </mxCell>
        <mxCell id="emAAfmEKNeKGw9AN2HSt-49" value="Device" style="rounded=0;whiteSpace=wrap;html=1;verticalAlign=middle;" vertex="1" parent="1">
          <mxGeometry x="180" y="420" width="85" height="35" as="geometry" />
        </mxCell>
        <mxCell id="emAAfmEKNeKGw9AN2HSt-55" value="Other protocols" style="edgeStyle=orthogonalEdgeStyle;rounded=0;orthogonalLoop=1;jettySize=auto;html=1;entryX=0.25;entryY=1;entryDx=0;entryDy=0;" edge="1" parent="1" source="emAAfmEKNeKGw9AN2HSt-50" target="emAAfmEKNeKGw9AN2HSt-11">
          <mxGeometry relative="1" as="geometry" />
        </mxCell>
        <mxCell id="emAAfmEKNeKGw9AN2HSt-50" value="Device" style="rounded=0;whiteSpace=wrap;html=1;verticalAlign=middle;" vertex="1" parent="1">
          <mxGeometry x="180" y="480" width="85" height="35" as="geometry" />
        </mxCell>
        <mxCell id="emAAfmEKNeKGw9AN2HSt-57" value="Cloud Services" style="text;html=1;strokeColor=none;fillColor=none;align=center;verticalAlign=middle;whiteSpace=wrap;rounded=0;dashed=1;fontStyle=1" vertex="1" parent="1">
          <mxGeometry x="895" y="455" width="105" height="20" as="geometry" />
        </mxCell>
        <mxCell id="emAAfmEKNeKGw9AN2HSt-59" value="Filed Sensing Devices" style="text;html=1;strokeColor=none;fillColor=none;align=center;verticalAlign=middle;whiteSpace=wrap;rounded=0;dashed=1;fontStyle=1" vertex="1" parent="1">
          <mxGeometry x="190" y="560" width="80" height="20" as="geometry" />
        </mxCell>
        <mxCell id="emAAfmEKNeKGw9AN2HSt-63" value="Mobile App" style="rounded=0;whiteSpace=wrap;html=1;" vertex="1" parent="1">
          <mxGeometry x="715" y="50" width="120" height="60" as="geometry" />
        </mxCell>
      </root>
    </mxGraphModel>
  </diagram>
</mxfile>
